<svg xmlns="http://www.w3.org/2000/svg" viewBox="0 0 120 120"><g fill="none" stroke="currentColor" stroke-linecap="round" stroke-linejoin="round" stroke-width="2.8"><path fill="rgba(99, 102, 241, 0.08)" stroke-width="2.2" d="M20 94q20-8 40-1 20-7 40 1v4q-20-8-40-1-20-7-40 1Z"/><path stroke-width="2.2" d="M24 88q18-7 36 0 18-7 36 0"/><path stroke-width="2.2" d="M60 88v9"/><path fill="rgba(99, 102, 241, 0.05)" stroke-width="3" d="M40 82c-6-12-8-28-5-38-3 0-3-4 1-8-3-1-2-6 2-9-2-1 0-7 6-10 3-1 7-1 9-3 1 0 2 3 2 6 5 1 13 6 22 14 3 3 1 7-5 8-6 0-10 2-13 5-1 3 4 9 9 17q7.5 12 6 18"/><circle cx="72" cy="36" r="1.2" fill="currentColor" stroke="none"/><circle cx="58" cy="27" r="1.5" fill="#fff" stroke="none"/><path fill="rgba(129, 140, 248, 0.2)" stroke-width="2.2" d="M52 56v-5h4v5h5v4h-5v5h-4v-5h-5v-4Z"/><circle cx="54" cy="58" r="1.2" fill="currentColor" stroke="none"/></g></svg>